<?xml version="1.0" encoding="UTF-8" standalone="no"?>
<!-- Created with Inkscape (http://www.inkscape.org/) -->

<svg
   xmlns:dc="http://purl.org/dc/elements/1.1/"
   xmlns:cc="http://creativecommons.org/ns#"
   xmlns:rdf="http://www.w3.org/1999/02/22-rdf-syntax-ns#"
   xmlns:svg="http://www.w3.org/2000/svg"
   xmlns="http://www.w3.org/2000/svg"
   xmlns:sodipodi="http://sodipodi.sourceforge.net/DTD/sodipodi-0.dtd"
   xmlns:inkscape="http://www.inkscape.org/namespaces/inkscape"
   width="744.09448819"
   height="1052.3622047"
   id="svg2"
   version="1.1"
   inkscape:version="0.48.1 r9760"
   sodipodi:docname="New document 1">
  <defs
     id="defs4" />
  <sodipodi:namedview
     id="base"
     pagecolor="#ffffff"
     bordercolor="#666666"
     borderopacity="1.0"
     inkscape:pageopacity="0.0"
     inkscape:pageshadow="2"
     inkscape:zoom="0.49497475"
     inkscape:cx="656.50951"
     inkscape:cy="524.07195"
     inkscape:document-units="px"
     inkscape:current-layer="layer1"
     showgrid="false"
     inkscape:snap-center="false"
     inkscape:snap-page="false"
     inkscape:window-width="1440"
     inkscape:window-height="825"
     inkscape:window-x="0"
     inkscape:window-y="0"
     inkscape:window-maximized="1" />
  <metadata
     id="metadata7">
    <rdf:RDF>
      <cc:Work
         rdf:about="">
        <dc:format>image/svg+xml</dc:format>
        <dc:type
           rdf:resource="http://purl.org/dc/dcmitype/StillImage" />
        <dc:title></dc:title>
      </cc:Work>
    </rdf:RDF>
  </metadata>
  <g
     inkscape:label="Layer 1"
     inkscape:groupmode="layer"
     id="layer1">
    <path
       sodipodi:type="spiral"
       style="fill:none;stroke:#000000;stroke-width:1px;stroke-linecap:butt;stroke-linejoin:miter;stroke-opacity:1;opacity:0.24"
       id="path3043"
       sodipodi:cx="140"
       sodipodi:cy="278.07648"
       sodipodi:expansion="1"
       sodipodi:revolution="3.0045962"
       sodipodi:radius="148.71648"
       sodipodi:argument="-18.325636"
       sodipodi:t0="0"
       d="m 140,278.07648 c 6.44636,3.72457 -1.84024,10.52714 -6.19048,10.71428 -11.78889,0.50713 -17.39198,-13.26738 -15.23808,-23.09525 3.85281,-17.57974 24.105,-24.93801 40.00001,-19.76188 23.32656,7.59619 32.65609,35.07101 24.28567,56.90478 -11.15645,29.10098 -46.08013,40.44439 -73.80953,28.80947 -34.894637,-14.64136 -48.268385,-57.10921 -33.333276,-90.7143 18.088418,-40.70027 68.149416,-56.11292 107.619066,-37.85707 46.51362,21.51388 63.97034,79.19653 42.38087,124.52383 -24.9259,52.33216 -90.24827,71.83635 -141.428597,46.90467 C 26.131315,346.17604 4.5772674,273.20175 32.85719,216.17165 64.582989,152.19249 145.2178,128.58686 208.09531,160.21939 c 69.80596,35.1181 95.46448,123.41975 60.47606,192.14288 -0.64993,1.27658 -1.31837,2.54375 -2.005,3.80097"
       transform="matrix(2.0471647,0,0,2.1072449,121.92865,210.01853)" />
    <path
       style="fill:#c83737;fill-opacity:1;opacity:0.47779995"
       id="path3049"
       d="m 114.44977,506.70211 c 9.29474,11.32557 19.31431,22.06518 29.83998,32.2513 8.26024,8.55253 17.57548,15.54781 27.79444,21.51358 7.17744,3.12029 13.56184,7.49403 19.57292,12.44563 6.0208,5.19575 11.62798,10.84474 17.25343,16.45912 5.87747,4.75533 9.68029,11.20205 14.29971,17.01763 3.60661,5.17051 7.8974,9.78353 11.20047,15.15923 0,0 -36.57557,21.24067 -36.57557,21.24067 l 0,0 c -3.19957,-5.25836 -7.5406,-9.6501 -10.95706,-14.76878 -4.36427,-5.79687 -8.17816,-11.9597 -13.88887,-16.62653 -5.53899,-5.50688 -11.06281,-11.0513 -17.06003,-16.06588 -5.94568,-4.71538 -12.35522,-8.61544 -19.13647,-12.02692 -10.26783,-6.32783 -19.38821,-13.97653 -27.76259,-22.67962 -10.582172,-10.39736 -20.639926,-21.3001 -30.807311,-32.10031 0,0 36.226951,-21.81912 36.226951,-21.81912 z"
       inkscape:connector-curvature="0" />
    <path
       style="fill:#c83737;fill-opacity:1;opacity:0.57960003"
       id="path3051"
       d="m 425.37836,346.54841 c 6.7697,13.36819 17.28451,24.20008 27.01587,35.40753 16.72772,19.90342 34.08685,39.26209 51.96188,58.1401 21.99723,22.66562 44.76743,44.56896 67.24558,66.75763 9.39714,9.02715 20.25341,17.20922 25.7277,29.34771 2.13042,5.80009 2.00629,11.97676 1.86323,18.05581 0.0619,6.12242 -0.22453,12.14586 -1.38123,18.15823 -1.31285,4.55236 -3.06473,8.87409 -3.89075,13.56351 -0.75887,5.49707 -0.73522,11.05971 -0.82355,16.59668 0.28787,8.22077 -0.92867,16.36238 -1.73929,24.5186 -0.44689,7.98942 -2.05809,15.84043 -3.05632,23.76678 -0.99627,10.18534 -1.08705,20.43633 -1.12424,30.66211 -0.0417,9.44345 0.0941,18.88636 0.18071,28.32918 -0.007,9.52433 -0.10379,19.04832 -0.17675,28.57232 0.002,1.9771 0.005,3.95419 0.007,5.93129 0,0 -37.23452,18.97229 -37.23452,18.97229 l 0,0 c 0.002,-1.97933 0.004,-3.95866 0.006,-5.93799 -0.0754,-9.45792 -0.1739,-18.91571 -0.2024,-28.37391 0.0634,-9.51527 0.16818,-19.03031 0.18758,-28.54582 0.0643,-10.29047 -0.16478,-20.59681 0.54451,-30.87054 0.78179,-7.97665 2.74922,-15.76974 3.25864,-23.77031 0.66181,-8.02375 2.03719,-16.00378 1.66349,-24.07472 -0.0376,-5.69056 -0.0278,-11.39278 0.45752,-17.06696 0.54532,-4.78939 1.40905,-9.50916 3.80735,-13.76741 1.17619,-5.83202 2.22928,-11.52049 1.79542,-17.52983 0.0692,-5.51706 0.50498,-11.14901 -0.97866,-16.53125 -4.56682,-11.79741 -15.09572,-19.82314 -23.46735,-28.85028 -21.8705,-22.77094 -44.64198,-44.61402 -66.76923,-67.12798 -18.1022,-18.84189 -36.07378,-37.85402 -53.17509,-57.60914 -9.97,-11.31829 -20.315,-22.40614 -28.29773,-35.28063 0,0 36.59404,-21.443 36.59404,-21.443 z"
       inkscape:connector-curvature="0" />
    <path
       style="fill:#c83737;fill-opacity:1;opacity:0.41999999"
       id="path3053"
       d="M 565.83971,938.36116 C 546.38138,907.22048 521.97058,879.6957 497.48132,852.49673 463.38677,816.40845 426.89822,782.6894 389.61475,749.94306 c -10.60795,-9.52775 -22.43139,-17.59848 -33.34508,-26.72919 -6.87441,-6.55434 -11.406,-14.88521 -15.80861,-23.17777 -2.90348,-7.38509 -7.82469,-13.64338 -11.53269,-20.58162 -4.25508,-7.18249 -6.7641,-15.00189 -8.52485,-23.10737 -1.56424,-8.64337 -1.84701,-17.43828 -2.06407,-26.19762 -0.7258,-8.62991 0.94367,-16.94446 2.81625,-25.30111 2.07073,-7.29439 4.61848,-14.503 7.57215,-21.49276 2.2463,-5.51791 4.05212,-11.20751 5.27209,-17.0379 1.44254,-8.38081 1.44286,-16.92234 1.57522,-25.40049 -0.23963,-8.75961 -2.89329,-17.18615 -4.29744,-25.79053 -0.80458,-5.04075 -2.05212,-9.99568 -3.22623,-14.95841 0,0 36.71335,-19.87895 36.71335,-19.87895 l 0,0 c 1.37617,5.0082 2.85718,10.00432 3.75012,15.12914 1.32854,8.86109 3.88209,17.51967 4.49613,26.47194 -0.0404,8.65139 -0.0438,17.33635 -0.99952,25.94458 -1.03871,6.12713 -2.66909,12.05499 -4.84573,17.87261 -3.01971,6.82618 -5.71601,13.77105 -8.06641,20.86745 -1.87161,8.06284 -4.08914,15.98919 -3.22043,24.37166 0.0601,8.53266 0.20077,17.10235 1.5935,25.54237 1.54712,7.75574 4.02509,15.13594 8.08987,21.97142 3.71585,6.92995 8.45857,13.30959 11.33264,20.6966 4.20766,7.79863 8.38691,15.72995 15.07369,21.74636 10.79742,9.06413 21.59501,18.13718 31.73065,27.95686 35.64761,34.36753 71.18663,68.8635 105.99101,104.08534 25.24978,26.9294 49.96865,54.3115 72.48086,83.60209 0,0 -36.33151,21.8134 -36.33151,21.8134 z"
       inkscape:connector-curvature="0" />
    <rect
       style="fill:#cccccc;fill-opacity:1"
       id="rect3059"
       width="685.71429"
       height="94.285713"
       x="38.326324"
       y="28.668203"
       ry="25.714285" />
    <path
       sodipodi:type="arc"
       style="opacity:0.23999999;fill:#aa4400;fill-opacity:1"
       id="path3063"
       sodipodi:cx="435.71429"
       sodipodi:cy="530.93359"
       sodipodi:rx="338.57144"
       sodipodi:ry="341.42856"
       d="M 192.90254,768.87615 A 338.57144,341.42856 0 1 1 771.65827,488.48004"
       sodipodi:start="2.3705228"
       sodipodi:end="6.1585217"
       sodipodi:open="true"
       transform="matrix(1.0254151,0,0,1.0591774,-53.897457,-62.642982)" />
    <rect
       style="opacity:0.23999999;fill:#aa4400;fill-opacity:1"
       id="rect3065"
       width="577.14288"
       height="128.57144"
       x="128.57143"
       y="889.50507"
       ry="37.142857" />
    <rect
       style="opacity:0.5;fill:#0000ff;fill-opacity:1"
       id="rect3071"
       width="690.94434"
       height="697.00525"
       x="24.243662"
       y="169.48886"
       ry="25.714285" />
  </g>
</svg>
