<?xml version="1.0" encoding="UTF-8" standalone="no"?>
<!-- Created with Inkscape (http://www.inkscape.org/) -->

<svg
   xmlns:dc="http://purl.org/dc/elements/1.1/"
   xmlns:cc="http://creativecommons.org/ns#"
   xmlns:rdf="http://www.w3.org/1999/02/22-rdf-syntax-ns#"
   xmlns:svg="http://www.w3.org/2000/svg"
   xmlns="http://www.w3.org/2000/svg"
   xmlns:xlink="http://www.w3.org/1999/xlink"
   xmlns:sodipodi="http://sodipodi.sourceforge.net/DTD/sodipodi-0.dtd"
   xmlns:inkscape="http://www.inkscape.org/namespaces/inkscape"
   width="1440"
   height="900"
   id="svg2"
   version="1.1"
   inkscape:version="0.48.1 r9760"
   sodipodi:docname="New document 1">
  <defs
     id="defs4">
    <linearGradient
       inkscape:collect="always"
       id="linearGradient2987">
      <stop
         style="stop-color:#2b0000;stop-opacity:1;"
         offset="0"
         id="stop2989" />
      <stop
         style="stop-color:#2b0000;stop-opacity:0;"
         offset="1"
         id="stop2991" />
    </linearGradient>
    <radialGradient
       inkscape:collect="always"
       xlink:href="#linearGradient2987"
       id="radialGradient2993"
       cx="261.63004"
       cy="36.743744"
       fx="261.63004"
       fy="36.743744"
       r="332.85715"
       gradientTransform="matrix(2.4870803,0.20219411,-0.03370139,0.41453583,-260.88518,72.801965)"
       gradientUnits="userSpaceOnUse" />
  </defs>
  <sodipodi:namedview
     id="base"
     pagecolor="#ffffff"
     bordercolor="#666666"
     borderopacity="1.0"
     inkscape:pageopacity="0.0"
     inkscape:pageshadow="2"
     inkscape:zoom="0.5016636"
     inkscape:cx="167.95603"
     inkscape:cy="538.60016"
     inkscape:document-units="px"
     inkscape:current-layer="layer1"
     showgrid="false"
     inkscape:window-width="1440"
     inkscape:window-height="825"
     inkscape:window-x="0"
     inkscape:window-y="0"
     inkscape:window-maximized="1" />
  <metadata
     id="metadata7">
    <rdf:RDF>
      <cc:Work
         rdf:about="">
        <dc:format>image/svg+xml</dc:format>
        <dc:type
           rdf:resource="http://purl.org/dc/dcmitype/StillImage" />
        <dc:title></dc:title>
      </cc:Work>
    </rdf:RDF>
  </metadata>
  <g
     inkscape:label="Layer 1"
     inkscape:groupmode="layer"
     id="layer1"
     transform="translate(0,-152.36218)">
    <rect
       style="fill:url(#radialGradient2993);fill-opacity:1"
       id="rect2985"
       width="665.71429"
       height="168.57143"
       x="54.285713"
       y="60.933613" />
    <rect
       style="opacity:0.57959996;fill:#2b0000;fill-opacity:1"
       id="rect2995"
       width="745.71429"
       height="1057.1428"
       x="0"
       y="6.6478968"
       ry="0" />
    <path
       style="opacity:0.57959996;fill:#2b0000;fill-opacity:1"
       id="path2997"
       d="m 394.93531,480.41287 c -7.53767,8.14054 -12.73009,18.02628 -17.95426,27.71934 -5.34343,9.60478 -8.60826,20.08523 -12.54283,30.2896 -2.46709,8.03995 -5.15812,15.96573 -8.06416,23.85827 -2.49714,7.2443 -6.1421,13.99351 -9.75411,20.72536 -3.88047,7.22112 -7.65973,14.48216 -11.03437,21.95331 -2.68588,6.86829 -6.52443,13.16432 -10.05548,19.61099 -4.09664,7.70668 -5.65163,16.40705 -8.23361,24.6894 -2.26989,7.04863 -3.34764,14.34772 -3.9324,21.70215 -0.43915,7.85989 -0.34963,15.7378 -0.36832,23.6068 -0.47209,11.78708 0.0614,23.38159 2.33536,34.96061 3.90436,12.48419 8.86728,24.89096 15.7957,36.04564 0.57792,0.93045 11.55456,16.38824 12.08113,17.13118 8.06705,11.66517 16.60655,23.09108 26.27363,33.48785 4.79819,5.73795 11.61629,8.69184 18.04336,12.17046 10.22956,4.87104 20.44591,9.7616 30.52971,14.92964 9.66864,4.74661 19.93348,8.0245 29.93704,11.93891 7.65807,2.7513 15.72061,4.07436 23.69049,5.57761 7.09127,1.74524 14.24481,4.386 21.62861,3.89071 5.8358,-0.76371 11.6821,-1.35873 17.55931,-1.6721 5.15786,-0.18014 10.17741,1.42686 15.30141,2.02365 2.6072,0.27129 5.22689,0.36359 7.84455,0.46245 0,0 -34.40138,24.72935 -34.40138,24.72935 l 0,0 c -2.69876,-0.17035 -5.39983,-0.33879 -8.07832,-0.72944 -4.90023,-0.74598 -9.76674,-2.04411 -14.76129,-1.37936 -5.90679,0.44368 -11.7875,1.31161 -17.71597,1.35779 -7.46825,-0.70475 -14.62155,-2.90508 -21.91047,-4.58159 -8.13739,-1.59338 -16.328,-3.09621 -24.04174,-6.26181 -10.0828,-3.90643 -20.28342,-7.55861 -29.96269,-12.42482 -10.18374,-5.16088 -20.52279,-9.98639 -30.87205,-14.80295 -6.90406,-3.644 -13.81777,-7.15624 -18.73668,-13.46622 -9.37349,-10.8067 -17.55769,-22.63205 -25.58898,-34.44855 -1.23252,-1.73304 -11.25018,-15.76233 -12.34726,-17.53276 -7.11178,-11.47675 -12.29089,-24.18663 -16.78982,-36.86062 -2.67898,-11.69151 -3.82217,-23.418 -3.33285,-35.42103 -0.0445,-7.9331 -0.0621,-15.86742 0.14333,-23.79875 0.36416,-7.6758 1.43495,-15.28971 3.66701,-22.66591 0.434,-1.45184 0.86799,-2.90367 1.30199,-4.35551 0.47741,-1.37738 1.01118,-2.7365 1.43224,-4.13214 1.70542,-5.65273 2.15952,-11.68587 5.01562,-16.96614 3.5958,-6.31622 7.36292,-12.6023 10.167,-19.31202 3.55402,-7.48402 7.03219,-14.98061 11.00312,-22.26461 3.68406,-6.49221 7.13134,-13.13607 9.91282,-20.05861 2.80745,-8.01877 6.29776,-15.76429 8.25342,-24.07522 4.08728,-10.32944 7.33435,-20.97843 12.55555,-30.83044 5.09304,-9.70682 10.01144,-19.75083 17.0041,-28.24925 0,0 39.00254,-16.57122 39.00254,-16.57122 z"
       inkscape:connector-curvature="0" />
    <path
       style="opacity:0.57959996;fill:#2b0000;fill-opacity:1"
       id="path2999"
       d="m 528.09887,301.95975 c 5.92216,22.4063 14.73698,43.71122 24.78641,64.53888 9.46985,18.72692 20.12269,36.7982 31.34705,54.51518 6.10698,8.81087 9.26385,19.01268 12.68546,29.0482 4.45014,11.13557 7.97278,22.55904 11.47808,34.01131 2.95919,8.81886 3.85043,17.96446 4.29959,27.18989 0.24266,12.3094 0.235,24.62365 0.26766,36.93538 -0.15908,9.12721 0.43301,18.27994 -0.12317,27.39497 -1.2447,6.30111 -3.10133,12.46617 -4.6613,18.70114 -1.3051,5.52646 -3.00547,10.84383 -5.6894,15.85403 -3.26675,5.0479 -5.06986,10.78627 -7.96244,16.03283 -3.65431,6.2131 -7.61104,12.23801 -11.44742,18.33996 -5.30845,7.37699 -10.60762,14.66887 -15.18277,22.52954 -2.50817,4.79845 -5.70696,9.12474 -8.99558,13.39596 -13.14361,18.55894 -12.77532,12.70093 -45.31154,31.74295 -13.8355,6.70264 -6.36598,3.14694 32.04775,-18.56677 0.75922,-0.42915 -1.45683,0.96152 -2.15117,1.48922 -2.32293,1.76544 -4.27941,3.81069 -6.23611,5.9593 -4.54418,4.71275 -9.23199,9.28507 -14.13668,13.62154 -2.65669,2.67468 -1.38631,1.31033 -3.81662,4.08795 0,0 -39.07283,16.37629 -39.07283,16.37629 l 0,0 c 2.61218,-2.70217 1.34425,-1.23557 3.76972,-4.42901 4.64352,-4.52365 9.76633,-8.56303 14.17424,-13.36076 5.90196,-5.90129 -1.99918,2.1668 3.88,-4.42276 11.69582,-13.10902 29.63018,-18.64468 44.58897,-27.40869 -11.42164,6.72859 -22.84644,13.45183 -34.26491,20.18578 -0.61101,0.36033 1.27749,-0.6359 1.84242,-1.06488 2.45597,-1.86496 3.94974,-5.04044 5.69515,-7.49131 3.33102,-4.22736 6.90339,-8.26905 9.42251,-13.06403 4.92842,-7.65837 9.28906,-15.66073 15.23316,-22.64847 3.90707,-5.96246 7.48489,-12.13958 11.31574,-18.14924 3.33936,-5.07347 5.07841,-10.67199 7.88675,-16.00742 3.09693,-4.52691 5.05472,-9.46262 6.19083,-14.82934 1.87655,-5.96063 2.79392,-12.22115 5.10351,-18.07271 1.18626,-9.00053 0.21377,-18.16849 0.6513,-27.22143 0.0591,-12.22788 0.17241,-24.46092 -0.30755,-36.68287 -0.42467,-8.88108 -1.17898,-17.74285 -3.84904,-26.28315 -3.3196,-11.45991 -6.44608,-22.9488 -11.18879,-33.94265 -3.48874,-9.6905 -6.6947,-19.53319 -12.20967,-28.31702 -10.60951,-18.24045 -20.49451,-36.87517 -30.167,-55.62753 -6.36548,-12.93096 -12.43844,-25.86424 -17.69255,-39.29472 -9.02273,-23.06372 0.40845,0.37643 -6.86109,-18.84855 -0.72201,-1.90942 -1.56198,-3.77213 -2.34297,-5.6582 0,0 37.0043,-20.55879 37.0043,-20.55879 z"
       inkscape:connector-curvature="0" />
  </g>
</svg>
